<svg width="256" height="256" xmlns="http://www.w3.org/2000/svg">
 <g>
  <title>Layer 1</title>
  <g stroke="null">
   <path stroke="null" p-id="1528" d="m122.65475,85.7046c-2.56067,-0.19697 -4.72739,1.96975 -4.72739,4.55856l0,4.50228c0,2.41997 1.91347,4.3053 4.33344,4.446c24.00277,1.66021 43.10931,21.18885 45.13534,45.21976c0.19697,2.39184 2.05416,4.27716 4.446,4.27716l4.55856,0c2.56067,0 4.72739,-2.16672 4.55856,-4.72739c-2.33556,-31.06572 -27.21064,-55.96895 -58.3045,-58.27636zm-0.02814,-27.01367c-2.56067,-0.11256 -4.69925,2.02602 -4.69925,4.5867l0,4.50228c0,2.41998 1.91347,4.3053 4.33344,4.446c38.88843,2.16672 70.29182,33.28872 72.20529,72.14901c0.11256,2.41997 2.02603,4.36158 4.446,4.36158l4.50228,0c2.56067,0 4.69925,-2.13858 4.5867,-4.69925c-2.41998,-45.97952 -39.39494,-82.95448 -85.37445,-85.34631zm-20.17583,63.0319l-2.53253,0c-2.47625,0 -4.50228,2.02602 -4.50228,4.50228l0,9.00456c0,2.47625 2.02603,4.50228 4.50228,4.50228l3.06718,0c13.22544,0 24.76253,10.80547 23.89021,24.00277c-0.73162,11.22756 -9.73618,20.20397 -20.93559,20.96373c-13.22544,0.90046 -24.03091,-10.63663 -24.03091,-23.89022l0,-70.60135c0,-2.47625 -2.02602,-4.50228 -4.50228,-4.50228l-9.00456,0c-2.47625,0 -4.50228,2.02602 -4.50228,4.50228l0,70.06671c0,23.24301 18.71259,43.25001 41.92747,42.46211c21.21699,-0.73162 38.35378,-17.86842 39.0854,-39.0854c0.81604,-23.21487 -19.2191,-41.92747 -42.46211,-41.92747z"/>
  </g>
 </g>

</svg>